<?xml version="1.0" encoding="utf-8"?>
<!-- Generator: Adobe Illustrator 27.0.1, SVG Export Plug-In . SVG Version: 6.00 Build 0)  -->
<svg version="1.1" id="Capa_1" xmlns="http://www.w3.org/2000/svg" xmlns:xlink="http://www.w3.org/1999/xlink" x="0px" y="0px"
	 viewBox="0 0 94.9 89" style="enable-background:new 0 0 94.9 89;" xml:space="preserve">
<style type="text/css">
	.st0{fill:#FF00FF;}
	.st1{fill:#FFFFFF;}
</style>
<g>
	<path class="st1" d="M47.2,87.3C23.7,87.2,4.5,67.9,4.6,44.5c0.1-23.7,19.4-43,43-42.8c24,0.2,42.7,19.4,42.6,43.6
		C90.1,68.4,70.6,87.4,47.2,87.3z M20.1,44.5c0,4,0,8,0,12c0,8.8,6.3,15.3,15.2,15.3c8.1,0,16.3,0,24.4,0c8.6,0,15-6.3,15.1-14.9
		c0.1-8.3,0.1-16.7,0-25c-0.1-8.2-6.6-14.6-14.8-14.7c-8.4,0-16.9,0-25.3,0c-8.1,0-14.6,6.7-14.6,14.7
		C20.1,36.1,20.1,40.3,20.1,44.5z"/>
	<path class="st1" d="M47.4,67c-4,0-7.9,0-11.9,0c-6.3,0-10.6-4.3-10.6-10.7c0-7.9,0-15.8,0-23.7c0-6.3,4.3-10.6,10.7-10.6
		c8,0,15.9,0,23.9,0C65.7,22,70,26.3,70,32.7c0,8,0,15.9,0,23.9C70,62.6,65.7,67,59.6,67C55.5,67,51.5,67,47.4,67z M47.5,59.4
		c8.3,0,15-6.8,15-15c0-8.1-6.9-14.8-15.1-14.8c-8.1,0-14.8,6.8-14.8,14.9C32.6,52.8,39.2,59.4,47.5,59.4z M65.3,30
		c0-1.7-1.4-3.2-3.1-3.2c-1.8-0.1-3.3,1.3-3.3,3.1c0,1.7,1.3,3.2,3.1,3.2C63.7,33.1,65.3,31.7,65.3,30z"/>
	<path class="st1" d="M57.2,44.6c0,5.4-4.4,9.8-9.8,9.8c-5.5,0-9.8-4.5-9.8-9.9c0-5.3,4.5-9.6,9.8-9.6
		C52.8,34.8,57.3,39.2,57.2,44.6z"/>
</g>
</svg>
