<?xml version="1.0" encoding="utf-8"?>
<!-- Generator: Adobe Illustrator 27.0.1, SVG Export Plug-In . SVG Version: 6.00 Build 0)  -->
<svg version="1.1" id="Capa_1" xmlns="http://www.w3.org/2000/svg" xmlns:xlink="http://www.w3.org/1999/xlink" x="0px" y="0px"
	 viewBox="0 0 94.9 89" style="enable-background:new 0 0 94.9 89;" xml:space="preserve">
<style type="text/css">
	.st0{fill:#FF00FF;}
	.st1{fill:#FFFFFF;}
</style>
<path class="st1" d="M91.8,44.6C91.8,68.2,72.5,87.4,49,87.3C25.3,87.2,6.2,68,6.3,44.5C6.3,20.7,25.5,1.6,49.2,1.7
	C72.8,1.8,91.9,21,91.8,44.6z M48.9,71.6c17.1,0,30-15.1,26.9-31.7c-2.1-11.2-8.8-18.7-19.8-21.6c-10.9-2.8-20.5,0.2-27.7,8.9
	c-7.2,8.7-8.2,18.6-3.7,29c0.4,0.8,0.5,1.6,0.3,2.4c-0.6,3.9-1,7.7-1.6,11.6c-0.2,1.1,0.1,1.4,1.2,1.2c3.9-0.7,7.8-1.4,11.7-2.1
	c0.9-0.2,1.6-0.1,2.5,0.2C41.9,71,45.3,71.6,48.9,71.6z"/>
<path class="st1" d="M48.9,67.1c-3.5,0-6.7-0.8-9.8-2.3c-0.7-0.3-1.3-0.4-2-0.3c-2.3,0.4-4.5,0.8-6.8,1.2c-1.1,0.2-1.6,0.1-1.3-1.2
	c0.4-2.1,0.5-4.2,0.9-6.3c0.2-1.1,0-2-0.6-2.9c-6.3-11.7-1.5-26.1,10.5-31.5c8.5-3.8,18.3-2.1,24.9,4.3c6.7,6.5,8.8,16.2,5.4,24.8
	C66.6,61.5,58.3,67.1,48.9,67.1z M44,37.5c-0.3-1.3-1-2.9-1.7-4.5c-0.7-1.5-1.6-1.8-3.1-0.9c-2.9,1.8-4.2,5-3.2,8.3
	c0.3,1,0.7,2,1.2,3C41,51.2,47,56.1,55.4,58c1.4,0.3,2.6,0,3.7-0.9c1-0.8,1.8-1.9,2.6-3c0.6-0.8,0.4-1.6-0.4-2.3
	c-1-0.8-2.1-1.6-3.2-2.4c-0.8-0.6-1.7-0.6-2.4,0.1c-0.8,0.7-1.5,1.4-2.3,2.1c-0.5,0.4-1,0.7-1.6,0.4c-4.1-2.3-7.6-5.4-9.5-9.8
	c-0.3-0.7-0.3-1.3,0.4-1.8C43.5,39.9,44,39,44,37.5z"/>
</svg>
