<?xml version="1.0" encoding="utf-8"?>
<!-- Generator: Adobe Illustrator 27.0.1, SVG Export Plug-In . SVG Version: 6.00 Build 0)  -->
<svg version="1.1" id="Capa_1" xmlns="http://www.w3.org/2000/svg" xmlns:xlink="http://www.w3.org/1999/xlink" x="0px" y="0px"
	 viewBox="0 0 209.9 211.3" style="enable-background:new 0 0 209.9 211.3;" xml:space="preserve">
<style type="text/css">
	.st0{fill:#A620E4;}
	.st1{fill:#FFFFFF;}
</style>
<g>
	<circle class="st0" cx="104.5" cy="105.5" r="105.5"/>
	<path class="st1" d="M104.4,147.7c-5.4,0-10.8,0-16.2,0c-1.5,0-2.7-0.5-3.7-1.6c-3.9-4.2-6.4-9-6.8-14.9c-0.3-4.6-2.4-8.7-5.1-12.4
		c-1.9-2.7-4-5.2-6.1-7.7c-7.2-8.7-9.1-18.8-8.2-29.7C59.9,61.7,75.2,44.6,96.4,41c25.5-4.3,49.4,12.2,53.6,36.7
		c2.2,12.6,0.2,24.5-8.6,34.6c-1.6,1.8-3.1,3.7-4.5,5.6c-3.5,4.7-5.7,9.9-6.1,15.8c-0.4,5.5-3.6,9.5-7.3,13.2
		c-0.6,0.6-1.8,0.8-2.7,0.8C115.4,147.8,109.9,147.7,104.4,147.7z"/>
	<path class="st1" d="M104.3,162.5c-4.8,0-9.6,0-14.4,0c-2,0-3.2-0.9-3.2-2.5s1.2-2.6,3.2-2.6c9.7,0,19.4,0,29.1,0
		c2,0,3.1,1,3.1,2.6s-1.2,2.5-3.2,2.5c-0.3,0-0.7,0-1,0C113.4,162.5,108.9,162.5,104.3,162.5z"/>
	<path class="st1" d="M104.5,150c4.9,0,9.7,0,14.6,0c2,0,3.1,0.9,3.1,2.5s-1.1,2.5-3.1,2.5c-9.8,0-19.5,0-29.3,0c-2,0-3.1-1-3.1-2.6
		c0.1-1.5,1.2-2.4,3.1-2.4C94.6,150,99.5,150,104.5,150z"/>
	<path class="st1" d="M104.4,169.8c-4.1,0-8.2,0-12.3,0c-1.9,0-2.9-0.9-2.9-2.5s1-2.5,2.9-2.5c8.1,0,16.3,0,24.4,0
		c1.9,0,2.9,0.8,3,2.5c0,1.7-1,2.6-3,2.6C112.5,169.8,108.5,169.8,104.4,169.8z"/>
	<path class="st1" d="M104.4,177.2c-1.9,0-3.7,0-5.6,0c-2,0-3.1-1-3.1-2.6s1.1-2.5,3-2.5c3.8,0,7.7,0,11.5,0c1.8,0,3,1,2.9,2.6
		c0,1.5-1.1,2.5-3,2.5C108.2,177.2,106.3,177.2,104.4,177.2z"/>
	<path class="st0" d="M102.3,140c-1,0-1.8,0-2.7,0c-0.2-3.9-0.5-7.7-0.7-11.5c-0.5-8.8-1.1-17.6-1.5-26.3c-0.1-1-0.5-1.4-1.4-1.8
		c-2.1-1.1-4.3-2.2-6-3.8c-2-1.8-2.8-4.4-2.3-7.2c0.5-2.9,2.7-4.7,5.8-4.8c2.9,0,5.3,1.7,5.7,4.6c0.4,2.7,0.5,5.4,0.6,8.2
		c0,1,0.3,1.5,1.4,1.5c2.1,0,4.2,0,6.4,0c1.2,0,1.6-0.4,1.6-1.6c0.1-2.6,0.2-5.2,0.6-7.8c0.3-2.3,1.7-3.9,4-4.5
		c2.2-0.6,4.4-0.3,6.1,1.5c1.9,2,2,4.4,1.2,6.9c-1.2,3.8-4.1,5.8-7.6,7.1c-1.3,0.5-1.7,1.1-1.8,2.4c-0.6,10.5-1.2,20.9-1.8,31.4
		c-0.1,2-0.3,3.9-0.4,6c-0.8,0-1.6,0-2.6,0c0.7-12.8,1.5-25.5,2.2-38.4c-2.9,0-5.7,0-8.8,0C100.8,114.3,101.5,127.1,102.3,140z
		 M111.8,97.7c4-0.8,7-4.1,6.8-7.4c-0.1-1.7-1.2-2.9-2.8-3.1c-1.7-0.2-3.3,0.8-3.5,2.5C112,92.4,112,95,111.8,97.7z M97.1,97.8
		c-0.2-2.7-0.3-5.3-0.5-7.8c-0.2-1.8-1.7-2.9-3.4-2.7c-1.8,0.2-2.9,1.5-2.9,3.3C90.3,93.8,92.9,96.6,97.1,97.8z"/>
</g>
</svg>
