<?xml version="1.0" encoding="utf-8"?>
<!-- Generator: Adobe Illustrator 27.0.1, SVG Export Plug-In . SVG Version: 6.00 Build 0)  -->
<svg version="1.1" id="Capa_1" xmlns="http://www.w3.org/2000/svg" xmlns:xlink="http://www.w3.org/1999/xlink" x="0px" y="0px"
	 viewBox="0 0 209.9 211.3" style="enable-background:new 0 0 209.9 211.3;" xml:space="preserve">
<style type="text/css">
	.st0{fill:#A620E4;}
	.st1{fill:#FFFFFF;}
</style>
<g>
	<circle class="st0" cx="104.9" cy="106.4" r="104.9"/>
	<path class="st1" d="M119.7,156.7H90.2c-1.8,0-3.3-1.5-3.3-3.3v-13.1c0-1.8,1.5-3.3,3.3-3.3h29.5c1.8,0,3.3,1.5,3.3,3.3v13.1
		C123,155.2,121.5,156.7,119.7,156.7z"/>
	<path class="st1" d="M158.3,160H51.5c-1.3,0-2.4-1.1-2.4-2.4v-4.3c0-1.3,1.1-2.4,2.4-2.4h106.8c1.3,0,2.4,1.1,2.4,2.4v4.3
		C160.7,159,159.6,160,158.3,160z"/>
	<path class="st1" d="M168.2,61.8c0-4.1-3.3-7.4-7.4-7.4H49.6c-4.1,0-7.4,3.3-7.4,7.4v68.7c0,4.1,3.3,7.4,7.4,7.4h111.1
		c4.1,0,7.4-3.3,7.4-7.4V61.8H168.2z M162.2,125c0,4.1-3.3,7.4-7.4,7.4h-98c-4.1,0-7.4-3.3-7.4-7.4V68.2c0-4.1,3.3-7.4,7.4-7.4h98
		c4.1,0,7.4,3.3,7.4,7.4V125z"/>
</g>
</svg>
