<?xml version="1.0" encoding="utf-8"?>
<!-- Generator: Adobe Illustrator 27.0.1, SVG Export Plug-In . SVG Version: 6.00 Build 0)  -->
<svg version="1.1" id="Capa_1" xmlns="http://www.w3.org/2000/svg" xmlns:xlink="http://www.w3.org/1999/xlink" x="0px" y="0px"
	 viewBox="0 0 209.9 211.3" style="enable-background:new 0 0 209.9 211.3;" xml:space="preserve">
<style type="text/css">
	.st0{fill:#A620E4;}
	.st1{fill:#FFFFFF;}
</style>
<circle class="st0" cx="105.7" cy="105.7" r="105.7"/>
<path class="st1" d="M171.2,76v77.4c0,6.7-5.4,12.7-12.1,12.7H52.2c-6.7,0-12.2-6-12.2-12.7V76c0-6.7,5.5-11.6,12.2-11.6H64v7
	c0,4.8,3.7,8.7,8.5,8.7s8.5-3.9,8.5-8.7v-7h49.1v7c0,4.8,3.7,8.7,8.5,8.7s8.5-3.9,8.5-8.7v-7h11.8C165.8,64.4,171.2,69.2,171.2,76z"
	/>
<rect x="50.3" y="99.5" class="st0" width="110.7" height="55.1"/>
<path class="st1" d="M74.4,77.4h-4.2c-2.5,0-4.6-2.1-4.6-4.6V56c0-2.5,2.1-4.6,4.6-4.6h4.2c2.5,0,4.6,2.1,4.6,4.6v16.8
	C79,75.3,77,77.4,74.4,77.4z"/>
<path class="st1" d="M140.8,77.4h-4.2c-2.5,0-4.6-2.1-4.6-4.6V56c0-2.5,2.1-4.6,4.6-4.6h4.2c2.5,0,4.6,2.1,4.6,4.6v16.8
	C145.4,75.3,143.3,77.4,140.8,77.4z"/>
<g>
	<path class="st1" d="M75.1,146.6v-5.5l5-4.6c8.5-7.6,12.7-12,12.8-16.6c0-3.2-1.9-5.7-6.4-5.7c-3.4,0-6.3,1.7-8.3,3.2l-2.6-6.5
		c2.9-2.2,7.5-4,12.8-4c8.8,0,13.7,5.2,13.7,12.2c0,6.5-4.7,11.8-10.4,16.8l-3.6,3v0.1h14.7v7.5H75.1V146.6z"/>
	<path class="st1" d="M134.5,115.1h-15.1l-0.8,6c0.8-0.1,1.6-0.1,2.5-0.1c3.7,0,7.5,0.8,10.3,2.8c2.9,2,4.7,5.2,4.7,9.8
		c0,7.3-6.2,13.7-16.7,13.7c-4.7,0-8.7-1.1-10.9-2.2l1.6-6.8c1.7,0.8,5.3,1.9,8.8,1.9c3.8,0,7.8-1.8,7.8-5.9c0-4-3.2-6.5-11-6.5
		c-2.2,0-3.7,0.1-5.3,0.4l2.6-20.5h21.5V115.1z"/>
</g>
</svg>
