<?xml version="1.0" encoding="utf-8"?>
<!-- Generator: Adobe Illustrator 27.0.1, SVG Export Plug-In . SVG Version: 6.00 Build 0)  -->
<svg version="1.1" id="Capa_1" xmlns="http://www.w3.org/2000/svg" xmlns:xlink="http://www.w3.org/1999/xlink" x="0px" y="0px"
	 viewBox="0 0 209.9 211.3" style="enable-background:new 0 0 209.9 211.3;" xml:space="preserve">
<style type="text/css">
	.st0{fill:#A620E4;}
	.st1{fill-rule:evenodd;clip-rule:evenodd;fill:#FFFFFF;}
	.st2{fill:#FFFFFF;}
</style>
<circle class="st0" cx="105.5" cy="105.5" r="105.5"/>
<g>
	<path class="st1" d="M60.6,69.5l0.8,0.7c0.2,0.1,0.3,0.3,0.4,0.5l1,1.8c0.1,0.1,0.1,0.2,0.1,0.3l1,3.1c0,0.1,0,0.1,0.1,0.2l1,4.8
		l0.8,4.6c0,0.1,0,0.1,0,0.2l0.2,3.1c0,0.2,0,0.4-0.1,0.6l-0.4,1.4c-0.1,0.3-0.2,0.6-0.4,0.8l0,0c-0.3,0.3-0.7,0.5-1.1,0.6l-2.3,0.3
		h-0.1l-3.1,0.3c-0.5,0-0.9,0.3-1.3,0.7l-1.1,1.4c-0.2,0.2-0.3,0.4-0.4,0.7l-1,3.6c0,0.2-0.1,0.4-0.1,0.6l0.2,5.9v0.1l0.9,8.1
		c0,0.1,0,0.1,0,0.2l1.7,7.5c0,0.1,0,0.2,0.1,0.2l2,5.1c0.1,0.2,0.2,0.4,0.3,0.5l1.8,2.1c0.3,0.3,0.6,0.5,1,0.6l1.7,0.4
		c0.3,0.1,0.6,0.1,0.9,0l3-0.9c0.1,0,0.2,0,0.3-0.1h0.3c0.6-0.1,1.1,0.1,1.5,0.5l0.6,0.6c0.1,0.1,0.2,0.2,0.3,0.4l1.4,2.3
		c0.1,0.1,0.1,0.3,0.2,0.4l1.3,4.2v0.1l1.1,4.5c0,0.1,0,0.1,0,0.2l0.4,3.4c0,0.1,0,0.2,0,0.3l-0.1,1.7c0,0.4-0.2,0.8-0.4,1.1
		l-0.3,0.4c-0.3,0.4-0.7,0.6-1.2,0.7l-4,0.5c-0.1,0-0.3,0-0.4,0l-5.4-0.4c-0.2,0-1.5-0.2-2.5-0.6L60,149c-0.4-0.2-0.8-0.4-1.1-0.6
		c-0.3-0.2-0.6-0.5-1.4-1.3l-0.1-0.1l-2.2-2.7c-0.1-0.1-0.6-0.9-0.7-1l-3.5-6.9c0-0.1-0.1-0.2-0.1-0.2l-3.2-9.9c0-0.1,0-0.1,0-0.2
		l-2.4-10.7c0-0.1,0-0.1,0-0.2l-1.2-9.7v-0.1l-0.3-8.5c0-0.1,0-0.2,0-0.3l0.9-7.5c0-0.1,0-0.2,0.1-0.3l1.7-6.2c0-0.1,0-0.1,0.1-0.2
		l1.8-4.8c0-0.1,0.1-0.2,0.2-0.3l2.1-3.2c0.1-0.1,0.2-0.3,0.3-0.4l1.9-1.7c0.1-0.1,0.3-0.2,0.5-0.3l3.9-1.6c0.2-0.1,0.3-0.1,0.5-0.1
		L60.6,69.5L60.6,69.5z"/>
	<path class="st1" d="M66.4,67.9l1,0.6c0.1,0.1,0.2,0.1,0.3,0.2l1.1,1.3c0.1,0.1,0.1,0.2,0.2,0.3l0.6,2.4l0.9,3.3l0.9,3.2
		c0,0.1,0,0.1,0,0.2l0.3,3.2L72,86l0.1,3c0,0.1,0,0.2,0,0.3L71.5,91c-0.1,0.3-0.3,0.5-0.5,0.6l-1.3,0.5c-0.1,0.1-0.3,0.1-0.4,0.1
		L68,92.1c-0.3,0-0.6-0.3-0.8-0.6l0,0c0-0.1-0.1-0.3,0-0.4l0.2-1.1v-0.1v-2.1l-0.1-2.5v-0.1l-0.4-2.6L66.5,80l0,0L66,77.5v-0.1
		l-0.6-2.1c0,0,0,0,0-0.1l-0.7-1.9v-0.1l-0.4-1.6c0-0.1-0.1-0.2-0.1-0.3l-0.8-1.2c-0.1-0.1-0.1-0.2-0.1-0.3L63,69.4
		c-0.1-0.3,0-0.7,0.3-0.9l0,0c0.1-0.1,0.2-0.2,0.4-0.2l1.2-0.3c0.1,0,0.1,0,0.2,0L66.4,67.9L66.4,67.9z"/>
	<path class="st1" d="M82.2,147.9l0.5-1.4v-0.1l0.3-1.5c0-0.1,0-0.2,0-0.3l-0.2-2.1v-0.1l-0.5-2.4l-0.7-3.1v-0.1l-1-2.9
		c0,0,0,0,0-0.1l-1.4-3.2c0-0.1-0.1-0.1-0.1-0.2l-1.8-2.4c-0.1-0.1-0.1-0.1-0.2-0.2l-1.6-1.1c-0.2-0.1-0.5-0.2-0.7-0.2l-1.4,0.3
		c-0.1,0-0.3,0.1-0.4,0.2l-0.8,0.6c-0.3,0.2-0.5,0.6-0.4,1l0.1,0.3c0,0.1,0,0.1,0.1,0.2l0.7,1.2l1.1,1.8c0,0,0,0.1,0.1,0.1l0.9,1.9
		c0,0,0,0.1,0.1,0.2l0.6,2.2l0.6,2.2l0.6,2.1v0.1l0.5,2.4v0.1l0.1,1.8l0.1,1.8c0,0.1,0,0.2,0,0.3l-0.3,1.4c0,0.1,0,0.2,0,0.2l0,0
		c0,0.5,0.4,0.8,0.9,0.8h0.8c0.1,0,0.3,0,0.4-0.1l1.6-0.6c0.1,0,0.2-0.1,0.3-0.2L82.2,147.9L82.2,147.9L82.2,147.9z"/>
</g>
<g>
	<path class="st2" d="M162.7,96.8c-0.3-3.1-0.9-6.1-1.8-9.1c-0.9-2.9-2-5.8-3.5-8.5c-1.4-2.7-3.1-5.3-5-7.7
		c-1.9-2.4-4.1-4.7-6.5-6.7c-4.9-4.2-10.5-7.3-16.7-9.2s-12.6-2.6-19-2c-3.1,0.3-6.1,0.9-9.1,1.8c-2.9,0.9-5.8,2-8.5,3.5
		c-2.7,1.4-5.3,3.1-7.7,5c-2.4,1.9-4.7,4.1-6.7,6.5s-3.8,4.9-5.3,7.6l0.9,1.2c0.1,0.1,0.1,0.2,0.1,0.2l0.6,1.3
		c9.9-19.3,32.6-29.2,53.9-22.5c23.9,7.5,37.2,33,29.7,56.9s-33,37.2-56.9,29.7c-5-1.6-9.6-4-13.6-7l-2.4,0.6c-0.1,0-0.2,0-0.3,0
		h-0.7c4.8,4,10.3,7,16.3,8.8c6.2,1.9,12.6,2.6,19,2c3.1-0.3,6.1-0.9,9.1-1.8c2.9-0.9,5.8-2,8.5-3.5c2.7-1.4,5.3-3.1,7.7-5
		s4.7-4.1,6.7-6.5c4.2-4.9,7.3-10.5,9.2-16.7C162.6,109.5,163.3,103.2,162.7,96.8z"/>
</g>
<g>
	<path class="st2" d="M88.3,117.6v-5.3l4.9-4.4c8.2-7.4,12.2-11.6,12.3-16c0-3.1-1.9-5.5-6.2-5.5c-3.2,0-6.1,1.6-8.1,3.1l-2.5-6.3
		c2.8-2.1,7.2-3.9,12.3-3.9c8.5,0,13.2,5,13.2,11.8c0,6.3-4.6,11.4-10,16.2l-3.5,2.9v0.1H115v7.2H88.3V117.6z"/>
	<path class="st2" d="M136.1,117.6v-9h-16.7v-5.7L133.6,80h10.8v22h4.5v6.6h-4.5v9H136.1z M136.1,102v-8.3c0-2.3,0.1-4.6,0.3-7h-0.2
		c-1.2,2.4-2.2,4.6-3.5,7l-5,8.2v0.1C127.7,102,136.1,102,136.1,102z"/>
</g>
<path class="st2" d="M115,58.6c4.6-0.9,9.1-1.8,13.7-2.7c-4.5-1.1-9-2.2-13.5-3.3l-12.9-5.4l-0.3,0.1l4,7l0.6,1.1l-0.7,1.1l-4.3,6.8
	l0.3,0.2L115,58.6z"/>
<path class="st2" d="M133.5,140.1c-3.5,2.6-6.9,5.2-10.4,7.7c4.2-0.9,8.4-1.8,12.7-2.7l13-0.6l0.2-0.2l-6.2-4.3l-1-0.7l0.1-1.2
	l0.9-7.4h-0.3L133.5,140.1z"/>
</svg>
