<?xml version="1.0" encoding="utf-8"?>
<!-- Generator: Adobe Illustrator 27.0.1, SVG Export Plug-In . SVG Version: 6.00 Build 0)  -->
<svg version="1.1" id="Capa_1" xmlns="http://www.w3.org/2000/svg" xmlns:xlink="http://www.w3.org/1999/xlink" x="0px" y="0px"
	 viewBox="0 0 236.6 256.6" style="enable-background:new 0 0 236.6 256.6;" xml:space="preserve">
<style type="text/css">
	.st0{opacity:0.51;}
	.st1{fill:#A6539B;}
	.st2{fill:#FFDB7A;}
	.st3{fill-rule:evenodd;clip-rule:evenodd;fill:#35475C;}
	.st4{fill-rule:evenodd;clip-rule:evenodd;fill:#35404F;}
	.st5{fill-rule:evenodd;clip-rule:evenodd;fill:#6E808F;}
	.st6{fill-rule:evenodd;clip-rule:evenodd;fill:#FFE8AF;}
	.st7{fill-rule:evenodd;clip-rule:evenodd;fill:#FFFFFF;}
	.st8{fill-rule:evenodd;clip-rule:evenodd;fill:#363F48;}
	.st9{fill-rule:evenodd;clip-rule:evenodd;fill:#ED6959;}
	.st10{fill-rule:evenodd;clip-rule:evenodd;fill:#C02929;}
	.st11{fill-rule:evenodd;clip-rule:evenodd;fill:#D0D1D3;}
	.st12{fill-rule:evenodd;clip-rule:evenodd;fill:#7C7C7D;}
	.st13{fill-rule:evenodd;clip-rule:evenodd;fill:#363F49;}
	.st14{fill-rule:evenodd;clip-rule:evenodd;fill:#EF7B58;}
	.st15{fill-rule:evenodd;clip-rule:evenodd;fill:#7CCADA;}
	.st16{fill-rule:evenodd;clip-rule:evenodd;fill:#FFDB7A;}
	.st17{fill-rule:evenodd;clip-rule:evenodd;fill:#CDCCCC;}
	.st18{fill-rule:evenodd;clip-rule:evenodd;fill:#3FB49B;}
</style>
<g>
	<g id="Background_26_" class="st0">
		<circle id="Background_2_27_" class="st1" cx="120.3" cy="127" r="108.5"/>
	</g>
	<g id="Web_Design_1_">
		<g>
			<polygon class="st2" points="77.3,50.5 109.7,50.5 110.5,50.5 110.5,51.3 110.5,73.1 136.5,73.1 137.3,73.1 137.3,73.9 
				137.3,84.9 135.7,84.9 135.7,74.7 109.7,74.7 108.9,74.7 108.9,73.9 108.9,52 77.3,52 			"/>
			<polygon class="st2" points="51.6,61.6 34.5,61.6 34.5,91.1 33,91.1 33,60.9 33,60.1 33.8,60.1 51.6,60.1 			"/>
		</g>
		<g>
			<path class="st3" d="M60.4,99h129.4c2.6,0,4.8,2.2,4.8,4.8v88.4h-139v-88.4C55.6,101.1,57.7,99,60.4,99L60.4,99z"/>
			<path class="st4" d="M34,208.4h91h91c0.5,0,0.4-0.4-0.2-0.8l-19.5-15c-0.6-0.5-1.5-0.8-2-0.8h-69.2H55.8c-0.5,0-1.4,0.4-2,0.8
				l-19.6,15C33.6,208,33.5,208.4,34,208.4L34,208.4z"/>
			<path class="st3" d="M34.8,207.3c60.2,0,120.4,0,180.6,0c1.4,0,1.5,1.1,0.3,2.5l-2.4,2.8c-1.2,1.4-3.3,2.5-4.7,2.5
				c-55.7,0-111.3,0-166.9,0c-1.4,0-3.5-1.1-4.7-2.5l-2.4-2.8C33.3,208.4,33.4,207.3,34.8,207.3L34.8,207.3z"/>
			<polygon class="st5" points="110.9,200 118.6,200 131.6,200 139.3,200 143.5,204.7 127.3,204.7 122.8,204.7 106.6,204.7 			"/>
			<rect x="59.9" y="105" class="st6" width="130.3" height="82.5"/>
		</g>
		<g>
			<g>
				<path class="st7" d="M203.3,83.5c1-1.7,1.7-3.5,2-5.4l5.8-1l-1.6-9l-5.8,1c-0.5-0.8-1-1.6-1.6-2.4c-0.6-0.7-1.3-1.4-2.1-2l2-5.5
					l-8.5-3.1l-2,5.5c-1.9-0.1-3.9,0.3-5.7,1l-3.8-4.5l-7,5.8l3.8,4.5c-1,1.7-1.7,3.5-2,5.4l-5.8,1l1.6,8.9l5.8-1
					c0.5,0.8,1,1.6,1.6,2.4c0.6,0.8,1.3,1.4,2.1,2l-2,5.5l8.5,3.1l2-5.5c1.9,0.1,3.9-0.3,5.7-1l3.8,4.5l7-5.8L203.3,83.5z"/>
				<path class="st8" d="M194,79.4c1.9-1.6,2.2-4.5,0.6-6.4c-1.6-1.9-4.5-2.2-6.4-0.6c-1.9,1.6-2.2,4.5-0.6,6.4
					C189.2,80.8,192.1,81,194,79.4L194,79.4z M196.8,82.8c3.8-3.2,4.3-8.8,1.1-12.6c-3.2-3.8-8.8-4.3-12.6-1.1
					c-3.8,3.2-4.3,8.8-1.1,12.6C187.4,85.5,193,86,196.8,82.8L196.8,82.8z"/>
			</g>
			<g>
				<path class="st7" d="M166.4,64.7c-0.5-1.2-1.3-2.4-2.3-3.3l1.7-3.7l-5.7-2.6l-1.7,3.7c-0.6-0.1-1.3-0.1-2,0
					c-0.7,0.1-1.3,0.2-2,0.4l-2.4-3.3l-5.2,3.7l2.4,3.3c-0.8,1.1-1.4,2.3-1.7,3.6l-4.1,0.4l0.6,6.3l4.1-0.4c0.6,1.2,1.3,2.4,2.3,3.3
					l-1.7,3.7l5.7,2.6l1.7-3.7c0.7,0.1,1.3,0.1,2,0c0.7-0.1,1.3-0.2,2-0.4l2.4,3.3l5.1-3.7l-2.4-3.3c0.8-1.1,1.4-2.3,1.7-3.6
					l4.1-0.4l-0.6-6.3L166.4,64.7z"/>
				<path class="st8" d="M160.5,68.4c-0.2-1.7-1.7-3-3.4-2.8c-1.7,0.2-3,1.7-2.8,3.4c0.2,1.7,1.7,3,3.4,2.9
					C159.3,71.7,160.6,70.1,160.5,68.4L160.5,68.4z M163.5,68.1c-0.3-3.4-3.3-5.9-6.8-5.6c-3.4,0.3-5.9,3.3-5.6,6.8
					c0.3,3.4,3.4,5.9,6.8,5.6C161.3,74.6,163.8,71.5,163.5,68.1L163.5,68.1z"/>
			</g>
		</g>
		<g>
			<path class="st7" d="M65,38.9c-6.3,0-11.6,4-13.1,9.5C45.7,49.1,41,53.9,41,59.9c0,6.4,5.5,11.6,12.3,11.6l0,0h31.5l0,0
				c0,0,0.1,0,0.1,0c5.9,0,10.6-4.5,10.6-10c0-4.1-2.7-7.6-6.4-9.2c0-0.1,0-0.1,0-0.2c0-3.9-3.4-7.1-7.5-7.1c-1.6,0-3.1,0.5-4.3,1.3
				C75.1,41.9,70.4,38.9,65,38.9L65,38.9z"/>
			<path class="st7" d="M108,65.4c-3.3,0-6.1,2.1-6.8,5c-3.2,0.4-5.7,2.9-5.7,6c0,3.3,2.9,6,6.4,6l0,0h16.5l0,0c0,0,0,0,0,0
				c3.1,0,5.6-2.3,5.6-5.2c0-2.1-1.4-4-3.4-4.8c0,0,0-0.1,0-0.1c0-2-1.7-3.7-3.9-3.7c-0.9,0-1.6,0.2-2.3,0.7
				C113.4,67,110.9,65.4,108,65.4L108,65.4z"/>
		</g>
		<g>
			<rect x="178.1" y="139" class="st7" width="43.6" height="56.1"/>
			<path class="st9" d="M222,139h-22.1h-22.1c-0.9,0-1.6-0.7-1.6-1.6v-2.3c0-0.9,0.7-1.6,1.6-1.6h15.9c0-0.2,0-0.4,0-0.7
				c0-3.4,2.8-6.2,6.2-6.2c3.4,0,6.2,2.8,6.2,6.2c0,0.2,0,0.4,0,0.7H222c0.9,0,1.6,0.7,1.6,1.6v2.3C223.6,138.3,222.8,139,222,139
				L222,139z M199.9,130.5c-1.3,0-2.4,1.1-2.4,2.4c0,1.3,1.1,2.4,2.4,2.4c1.3,0,2.4-1.1,2.4-2.4
				C202.3,131.5,201.2,130.5,199.9,130.5L199.9,130.5z"/>
			<path class="st10" d="M222,139h-22.1h-22.1c-0.9,0-1.6-0.7-1.6-1.6v0h47.3v0C223.6,138.3,222.8,139,222,139L222,139z"/>
			<polygon class="st11" points="214.6,195.1 221.7,188 214.6,188.1 			"/>
			<g>
				<rect x="184.5" y="147" class="st12" width="30.7" height="2.6"/>
				<rect x="184.5" y="157.1" class="st12" width="30.7" height="2.6"/>
				<rect x="184.5" y="167.1" class="st12" width="30.7" height="2.6"/>
				<rect x="184.5" y="177.2" class="st12" width="30.7" height="2.6"/>
			</g>
		</g>
		<g>
			<g>
				<path class="st7" d="M20.7,84.8h146.8c2,0,3.7,1.7,3.7,3.7v83.5c0,2-1.7,3.7-3.7,3.7H20.7c-2,0-3.7-1.7-3.7-3.7V88.6
					C17,86.5,18.7,84.8,20.7,84.8L20.7,84.8z"/>
				<g>
					<path class="st13" d="M20.3,84.8H168c1.8,0,3.3,1.5,3.3,3.3v10c0,0.1-0.1,0.3-0.3,0.3H17V88.1C17,86.3,18.5,84.8,20.3,84.8
						L20.3,84.8z"/>
					<path class="st14" d="M24.6,94.4c1.6,0,2.8-1.3,2.8-3c0-1.6-1.3-3-2.8-3c-1.6,0-2.8,1.3-2.8,3C21.8,93.1,23.1,94.4,24.6,94.4
						L24.6,94.4z"/>
					<path class="st15" d="M32.6,94.4c1.6,0,2.8-1.3,2.8-3c0-1.6-1.3-3-2.8-3c-1.6,0-2.8,1.3-2.8,3C29.7,93.1,31,94.4,32.6,94.4
						L32.6,94.4z"/>
					<path class="st16" d="M40.5,94.4c1.6,0,2.8-1.3,2.8-3c0-1.6-1.3-3-2.8-3c-1.6,0-2.8,1.3-2.8,3C37.6,93.1,38.9,94.4,40.5,94.4
						L40.5,94.4z"/>
					<rect x="47.6" y="89" class="st7" width="119.3" height="5.6"/>
				</g>
			</g>
			<rect x="29.4" y="103.6" class="st17" width="33.1" height="4.4"/>
			<rect x="76.2" y="103.6" class="st17" width="33.1" height="4.4"/>
			<rect x="123.2" y="103.6" class="st17" width="33.1" height="4.4"/>
			<rect x="28.5" y="115.2" class="st16" width="79.6" height="36.2"/>
			<rect x="114.7" y="115.2" class="st14" width="24.4" height="23.2"/>
			<rect x="27.9" y="155.7" class="st17" width="60.8" height="2.5"/>
			<rect x="39.5" y="160.3" class="st17" width="60.8" height="2.5"/>
			<rect x="29.7" y="165.3" class="st17" width="60.8" height="2.5"/>
			<polygon class="st7" points="131.8,126.8 126.9,129.8 121.9,132.8 121.9,126.8 121.9,120.8 126.9,123.8 			"/>
			<rect x="114.7" y="144" class="st18" width="48.8" height="23.2"/>
			<rect x="139.1" y="115.2" class="st16" width="24.4" height="23.2"/>
			<path class="st13" d="M46.8,136.4l-4.6-2.1l5.3-2.1l0.2-1.2l-7,2.7l-0.2,1.2l6.1,2.7L46.8,136.4z M57.2,135.1l-1.1,6.6h1.6
				l2.5-14.7h-1.6l-1.1,6.6h-3.6L55,127h-1.6l-2.5,14.7h1.6l1.1-6.6H57.2z M63.1,141.7l2.3-13.2h2.7l0.3-1.5h-7l-0.3,1.5h2.7
				l-2.3,13.2H63.1z M76.7,129.9l-2,11.8h1.6l2.5-14.7h-2.3l-4.4,11.7L71.7,127h-2.3l-2.6,14.7h1.4l2-11.7l0.4,11.7h1.6L76.7,129.9z
				 M83.7,141.7l0.3-1.5h-4.2l2.3-13.2h-1.6l-2.6,14.7H83.7z M88.9,137.6l7-2.7l0.2-1.2l-6-2.7l-0.2,1.2l4.6,2.1l-5.3,2.1
				L88.9,137.6z"/>
			<path class="st7" d="M127.5,157.4l-3.7-1.6l4.2-1.6l0.1-0.9l-5.5,2.1l-0.1,0.9l4.8,2.1L127.5,157.4z M132.5,150l-1.7,11.6h2.7
				c1.8,0,2.8-1.1,3.1-2.9l0.9-5.8c0.3-1.8-0.4-2.9-2.2-2.9H132.5z M132.3,160.4l1.4-9.3h1.4c0.9,0,1.3,0.6,1.1,1.6l-0.9,6
				c-0.2,1.1-0.7,1.6-1.6,1.6H132.3z M139.1,150l-1.7,11.6h1.3l1.7-11.6H139.1z M141.4,150l0.4,11.6h1.9l3.9-11.6h-1.2l-3.4,10.1
				l-0.4-10.1H141.4z M150,158.4l5.5-2.1l0.1-0.9l-4.8-2.1l-0.1,0.9l3.7,1.6l-4.2,1.6L150,158.4z"/>
		</g>
	</g>
</g>
</svg>
