<?xml version="1.0" encoding="utf-8"?>
<!-- Generator: Adobe Illustrator 27.0.1, SVG Export Plug-In . SVG Version: 6.00 Build 0)  -->
<svg version="1.1" id="Capa_1" xmlns="http://www.w3.org/2000/svg" xmlns:xlink="http://www.w3.org/1999/xlink" x="0px" y="0px"
	 viewBox="0 0 564.5 449.3" style="enable-background:new 0 0 564.5 449.3;" xml:space="preserve">
<style type="text/css">
	.st0{fill:#F2F2F2;}
	.st1{fill:#CCCCCC;}
	.st2{fill:#E6E6E6;}
	.st3{fill:#A620E4;}
	.st4{fill:#FFFFFF;}
	.st5{fill:#3F3D56;}
	.st6{fill:#A0616A;}
	.st7{fill:#2F2E41;}
	.st8{fill:#F0F0F0;}
	.st9{fill:#FFB6B6;}
	.st10{fill:#E4E4E4;}
	.st11{fill:#CACACA;}
</style>
<path class="st8" d="M82.1,360.4l-17.2-9.8c-0.8-8.6-1-17.2-0.7-25.8l8.9,2l-8.8-5c0.5-10.6,1.6-17.7,1.6-17.7s34.7,20.2,56.8,47.5
	l-3.8,23.1l9-16.2c2.3,3.3,4.4,6.7,6.2,10.2c18.2,35.6,20,69.8,4,76.4s-43.8-17-62.1-52.6c-5.7-11-8.8-23.7-10.4-36L82.1,360.4z"/>
<path class="st8" d="M46.8,394.8l-20.3-0.4c-5.6-7-10.8-14.2-15.5-21.7l8.8-2.4L9.3,370c-5.7-9.3-8.9-15.8-8.9-15.8
	s41.4,1.2,76.1,14.4L86.6,390L85,372c3.9,1.8,7.6,3.7,11.2,5.9c36.2,22.1,57.5,50.5,47.5,63.6s-47.3,5.7-83.5-16.3
	c-11.2-6.8-21.2-16.3-29.7-26L46.8,394.8z"/>
<path class="st9" d="M336.7,126l-15.9-1.7l-5.6,43.6l-14.4,60.2c-5.1,2.2-7.2,7.7-4.8,12.3s8.7,6.5,13.8,4.3
	c5.1-2.2,7.2-7.7,4.8-12.3c-0.6-1.1-1.5-2.2-2.6-3l14.4-35.5L336.7,126z"/>
<polygon class="st9" points="359.9,436.8 346.7,436.8 340.5,391.5 359.9,391.5 "/>
<path class="st7" d="M363.2,448.1l-42.3,0v-0.5c0-8.1,7.4-14.7,16.5-14.7h0l25.9,0L363.2,448.1z"/>
<polygon class="st9" points="460.7,430.4 447.8,432.6 432,389.2 451.1,385.9 "/>
<path class="st7" d="M466.4,441l-41.6,7.2l-0.1-0.5c-1.7-8,4.1-15.7,13.1-17.3l0,0l25.4-4.4L466.4,441z"/>
<path class="st7" d="M339.3,54.5l7.6,13.1l57.2-11.3L397.8,31c-5-20.1-24.8-34.6-47.3-30.2c-22.5,4.4-33,24.1-28,44.2l9.2,25.7
	l9.3-1.8L339.3,54.5z"/>
<path class="st7" d="M318.9,198.9c0,0-5.6,25.2,1.9,62c7.5,36.9,9.4,52.8,9.4,52.8s-5.6,5.9-1.9,9.2s0,10.1,0,10.1l8.4,81.3
	l29.1-4.2l-3.8-76.3c0,0,3.8-6.7,1.9-8.4s1.9-11.7,1.9-11.7l4.7-79.6l29.1,87.2c0,0-2.8,3.4,0,5.9c2.8,2.5,8.4,15.1,8.4,15.1
	l18.8,58.7l30-5l-16.9-67.1c0,0,1.9-4.2-0.9-6.7c-1.7-1.6-2.4-3.8-1.9-5.9c0,0,2.8-2.5-0.9-5.9s-5.6-16.8-5.6-16.8
	s-2.8-89.7-12.2-94.7C408.9,193.9,318.9,198.9,318.9,198.9z"/>
<ellipse class="st9" cx="361.3" cy="36.7" rx="26.3" ry="23.5"/>
<path class="st2" d="M398.3,66.8c0,0,19.1-2,24.7,3l-5.6,101.4c0,0,3.8,2.5,1.9,8.4c-1.1,3.9-1.1,7.9,0,11.7c0,0,5.6,5.9,2.8,8.4
	c-2.8,2.5-104.1,0.8-104.1,0.8s-3.8-5.9,1.9-9.2c5.6-3.4,2.8-12.6,2.8-12.6s-1.9-2.5,2.8-6.7s8.4-38.6,8.4-38.6l-12.2-41.9
	c0,0,12.3-12.4,26.3-13.3L398.3,66.8z"/>
<path class="st2" d="M336.2,92.2l-14.5-0.6c0,0-8.4,15.1-9.4,28.5l-5.2,50l33.3,4.5L336.2,92.2z"/>
<path class="st7" d="M338.8,37.9L329,26.7c-1.2-4.9,2.3-9.8,7.8-10.9l36.8-7.3c5.5-1.1,10.9,2,12.2,6.9l0,0.1l-2.6,13.5l-0.5-0.1
	c-22.9-3.6-29.4-2.4-43.6,8.6L338.8,37.9z"/>
<path class="st9" d="M436.9,217.1l-1.8-66l-1.9-46.9l-22.5,2.5l12.1,112.2c-3.5,4-2.8,9.8,1.6,13c4.5,3.2,10.9,2.5,14.5-1.5
	c3.5-4,2.8-9.8-1.6-13C437.2,217.3,437.1,217.2,436.9,217.1z"/>
<path class="st2" d="M406.6,71.2l16.4-1.4c0,0,2.8,0,5.6,8.4c2.8,8.4,18.3,97,18.3,97l-34.2,2.8L406.6,71.2z"/>
<path class="st5" d="M304.6,176h-2.2v-53.7c0-17.2-15.6-31.1-34.8-31.1l0,0H140.3c-19.2,0-34.8,13.9-34.8,31.1l0,0V417
	c0,17.2,15.6,31.1,34.8,31.1h127.3c19.2,0,34.8-13.9,34.8-31.1V214.2h2.2V176z"/>
<path class="st4" d="M269,99.2h-16.6c2.6,5.6-0.5,12.1-6.8,14.4c-1.5,0.5-3.1,0.8-4.7,0.8h-73c-6.8,0-12.3-4.9-12.3-11
	c0-1.4,0.3-2.8,0.9-4.2H141c-14.3,0-26,10.4-26,23.2v294.4c0,12.8,11.6,23.2,26,23.2c0,0,0,0,0,0h128c14.3,0,26-10.4,26-23.2l0,0
	l0,0V122.4C295,109.6,283.3,99.2,269,99.2L269,99.2z"/>
<path class="st7" d="M184.5,206.2l3.5,11l45.2-0.7l-0.4-20.1c-0.3-15.9-12.9-29.6-30.6-29.3c-17.8,0.3-29.1,13.7-28.8,29.6l2.6,20.7
	l7.4-0.1L184.5,206.2z"/>
<ellipse class="st9" cx="204.2" cy="195.7" rx="20.3" ry="18.1"/>
<path class="st10" d="M244.6,224l-0.5,7.6c-20.2,18.8-53.5,20-75.3,2.6c-0.5-0.4-0.9-0.8-1.4-1.1c2.8-2.5,10.6-8.7,19.2-9.2
	l38.9-2.2C225.5,221.7,240.2,220.1,244.6,224z"/>
<path class="st7" d="M226.4,183c0-1.4-0.5-2.7-1.4-3.9c-0.1-0.1-0.2-0.2-0.3-0.3c-1.5-1.7-3.9-2.7-6.3-2.7l-14.6,0.2l-14.6,0.2
	c-4.3,0.1-7.8,3.3-7.7,7.2l3.5,6.2l2,3.6l0.3-0.2c12.6-6.3,17.8-6.4,34.5-0.5l0.3,0.1l1.3-3L226.4,183L226.4,183z"/>
<path class="st10" d="M247.9,227.8c-4.2,4.8-9.3,8.8-15.1,11.9l-0.9-14.6l12.7-1.1C244.6,224,246.1,224,247.9,227.8z"/>
<path class="st5" d="M205,247.4c-13.6,0-26.6-4.4-36.8-12.5c-0.5-0.4-1-0.8-1.4-1.2c-11-9.3-17.2-22.3-17.2-35.8
	c0-27.3,24.8-49.5,55.3-49.5s55.3,22.1,55.3,49.5c0,11-4.1,21.7-11.7,30.4C238.1,240.3,222,247.4,205,247.4z M205,150.1
	c-29.5,0-53.4,21.4-53.4,47.8c-0.1,13.1,5.9,25.6,16.6,34.6c0.4,0.4,0.9,0.8,1.4,1.1c22.1,17.5,55.9,15.7,75.5-4.1
	c0.7-0.7,1.4-1.5,2.1-2.3c7.4-8.4,11.3-18.7,11.3-29.4C258.4,171.5,234.5,150.1,205,150.1z"/>
<path class="st3" d="M254.7,315.9h-97.5c-4.1,0-7.4-3-7.4-6.6c0-3.7,3.3-6.6,7.4-6.6c0,0,0,0,0,0h97.5c4.1,0,7.4,3,7.4,6.6
	C262.1,313,258.8,315.9,254.7,315.9C254.7,315.9,254.7,315.9,254.7,315.9z"/>
<path class="st3" d="M254.7,336.9h-97.5c-4.1,0-7.4-3-7.4-6.6c0-3.7,3.3-6.6,7.4-6.6c0,0,0,0,0,0h97.5c4.1,0,7.4,3,7.4,6.6
	C262.1,333.9,258.8,336.9,254.7,336.9C254.7,336.9,254.7,336.9,254.7,336.9z"/>
<path class="st3" d="M231,294.7h-50c-4.1,0-7.4-3-7.4-6.6c0-3.7,3.3-6.6,7.4-6.6c0,0,0,0,0,0h50c4.1,0,7.4,3,7.4,6.6
	C238.4,291.8,235.1,294.7,231,294.7z"/>
<path class="st11" d="M563.5,448.8H0.9c-0.5,0-0.9-0.4-0.9-0.8c0-0.5,0.4-0.8,0.9-0.8h562.6c0.5,0,0.9,0.4,0.9,0.8
	C564.5,448.4,564,448.8,563.5,448.8z"/>
</svg>
