<?xml version="1.0" encoding="utf-8"?>
<!-- Generator: Adobe Illustrator 27.0.1, SVG Export Plug-In . SVG Version: 6.00 Build 0)  -->
<svg version="1.1" id="Capa_1" xmlns="http://www.w3.org/2000/svg" xmlns:xlink="http://www.w3.org/1999/xlink" x="0px" y="0px"
	 viewBox="0 0 94.9 89" style="enable-background:new 0 0 94.9 89;" xml:space="preserve">
<style type="text/css">
	.st0{fill:#FF00FF;}
	.st1{fill:#FFFFFF;}
</style>
<path class="st1" d="M92.4,45c0.1,23.5-19.1,42.8-42.7,42.9C26.3,88,7,69,6.8,45.6C6.7,21.7,25.6,2.5,49.4,2.3
	C73,2.1,92.3,21.3,92.4,45z M53.3,64C53.3,64,53.3,64,53.3,64c0-4,0-8,0-12c0-1.2,0.4-1.5,1.5-1.5c2,0.1,4,0,5.9,0
	c0.8,0,1.3-0.1,1.4-1.1c0.4-2.9,0.9-5.9,1.4-8.8c0.2-0.9-0.1-1.2-1-1.1c-2.5,0-5.1,0-7.6,0c-1.2,0-1.7-0.2-1.6-1.5
	c0.1-1.8,0-3.7,0-5.5c0-3.8,1.9-5.8,5.8-5.9c1.3,0,2.5-0.1,3.8,0c1,0,1.2-0.3,1.2-1.2c0-2.3,0-4.5,0-6.8c0-0.8-0.3-1.1-1.1-1.2
	c-2.9-0.1-5.7-0.3-8.6-0.4c-2.5-0.1-5,0.5-7.1,2c-4.1,2.9-5.5,7.1-5.7,11.9c-0.1,2.5,0,5,0,7.5c0,0.9-0.3,1.1-1.1,1.1
	c-2.4,0-4.9,0-7.3,0c-1,0-1.4,0.2-1.4,1.3c0.1,2.8,0.1,5.6,0,8.5c0,0.9,0.2,1.2,1.2,1.2c2.4-0.1,4.7,0.1,7.1,0
	c1.3-0.1,1.7,0.3,1.7,1.6c-0.1,7.9,0,15.8-0.1,23.7c0,1.2,0.2,1.7,1.5,1.6c2.9-0.1,5.7-0.1,8.6,0c1.3,0,1.7-0.3,1.7-1.6
	C53.3,71.9,53.3,67.9,53.3,64z"/>
</svg>
